<svg width="1440" height="1024" viewBox="0 0 1440 1024" fill="none" xmlns="http://www.w3.org/2000/svg">
<path d="M24 24V1128" stroke="#131313"/>
<path d="M56 24V1128" stroke="#131313"/>
<path d="M88 24V1128" stroke="#131313"/>
<path d="M120 24V1128" stroke="#131313"/>
<path d="M152 24V1128" stroke="#131313"/>
<path d="M184 24V1128" stroke="#131313"/>
<path d="M216 24V1128" stroke="#131313"/>
<path d="M248 24V1128" stroke="#131313"/>
<path d="M280 24V1128" stroke="#131313"/>
<path d="M312 24V1128" stroke="#131313"/>
<path d="M344 24V1128" stroke="#131313"/>
<path d="M376 24V1128" stroke="#131313"/>
<path d="M408 24V1128" stroke="#131313"/>
<path d="M440 24V1128" stroke="#131313"/>
<path d="M472 24V1128" stroke="#131313"/>
<path d="M504 24V1128" stroke="#131313"/>
<path d="M536 24V1128" stroke="#131313"/>
<path d="M568 24V1128" stroke="#131313"/>
<path d="M600 24V1128" stroke="#131313"/>
<path d="M632 24V1128" stroke="#131313"/>
<path d="M664 24V1128" stroke="#131313"/>
<path d="M696 24V1128" stroke="#131313"/>
<path d="M728 24V1128" stroke="#131313"/>
<path d="M760 24V1128" stroke="#131313"/>
<path d="M792 24V1128" stroke="#131313"/>
<path d="M824 24V1128" stroke="#131313"/>
<path d="M856 24V1128" stroke="#131313"/>
<path d="M888 24V1128" stroke="#131313"/>
<path d="M920 24V1128" stroke="#131313"/>
<path d="M952 24V1128" stroke="#131313"/>
<path d="M984 24V1128" stroke="#131313"/>
<path d="M1016 24V1128" stroke="#131313"/>
<path d="M1048 24V1128" stroke="#131313"/>
<path d="M1080 24V1128" stroke="#131313"/>
<path d="M1112 24V1128" stroke="#131313"/>
<path d="M1144 24V1128" stroke="#131313"/>
<path d="M1176 24V1128" stroke="#131313"/>
<path d="M1208 24V1128" stroke="#131313"/>
<path d="M1240 24V1128" stroke="#131313"/>
<path d="M1272 24V1128" stroke="#131313"/>
<path d="M1304 24V1128" stroke="#131313"/>
<path d="M1336 24V1128" stroke="#131313"/>
<path d="M1368 24V1128" stroke="#131313"/>
<path d="M1400 24V1128" stroke="#131313"/>
<path d="M1432 24V1128" stroke="#131313"/>
<path d="M824 8L-280 8.00001" stroke="#131313"/>
<path d="M824 40L-280 40" stroke="#131313"/>
<path d="M824 72L-280 72" stroke="#131313"/>
<path d="M824 104L-280 104" stroke="#131313"/>
<path d="M824 136L-280 136" stroke="#131313"/>
<path d="M824 168L-280 168" stroke="#131313"/>
<path d="M824 200L-280 200" stroke="#131313"/>
<path d="M824 232L-280 232" stroke="#131313"/>
<path d="M824 264L-280 264" stroke="#131313"/>
<path d="M824 296L-280 296" stroke="#131313"/>
<path d="M824 328L-280 328" stroke="#131313"/>
<path d="M824 360L-280 360" stroke="#131313"/>
<path d="M824 392L-280 392" stroke="#131313"/>
<path d="M824 424L-280 424" stroke="#131313"/>
<path d="M824 456L-280 456" stroke="#131313"/>
<path d="M824 488L-280 488" stroke="#131313"/>
<path d="M824 520L-280 520" stroke="#131313"/>
<path d="M824 552L-280 552" stroke="#131313"/>
<path d="M824 584L-280 584" stroke="#131313"/>
<path d="M824 616L-280 616" stroke="#131313"/>
<path d="M824 648L-280 648" stroke="#131313"/>
<path d="M824 680L-280 680" stroke="#131313"/>
<path d="M824 712L-280 712" stroke="#131313"/>
<path d="M824 744L-280 744" stroke="#131313"/>
<path d="M824 776L-280 776" stroke="#131313"/>
<path d="M824 808L-280 808" stroke="#131313"/>
<path d="M824 840L-280 840" stroke="#131313"/>
<path d="M824 872L-280 872" stroke="#131313"/>
<path d="M824 904L-280 904" stroke="#131313"/>
<path d="M824 936L-280 936" stroke="#131313"/>
<path d="M824 968L-280 968" stroke="#131313"/>
<path d="M824 1000L-280 1000" stroke="#131313"/>
<path d="M1928 8L824 8.00001" stroke="#131313"/>
<path d="M1928 40L824 40" stroke="#131313"/>
<path d="M1928 72L824 72" stroke="#131313"/>
<path d="M1928 104L824 104" stroke="#131313"/>
<path d="M1928 136L824 136" stroke="#131313"/>
<path d="M1928 168L824 168" stroke="#131313"/>
<path d="M1928 200L824 200" stroke="#131313"/>
<path d="M1928 232L824 232" stroke="#131313"/>
<path d="M1928 264L824 264" stroke="#131313"/>
<path d="M1928 296L824 296" stroke="#131313"/>
<path d="M1928 328L824 328" stroke="#131313"/>
<path d="M1928 360L824 360" stroke="#131313"/>
<path d="M1928 392L824 392" stroke="#131313"/>
<path d="M1928 424L824 424" stroke="#131313"/>
<path d="M1928 456L824 456" stroke="#131313"/>
<path d="M1928 488L824 488" stroke="#131313"/>
<path d="M1928 520L824 520" stroke="#131313"/>
<path d="M1928 552L824 552" stroke="#131313"/>
<path d="M1928 584L824 584" stroke="#131313"/>
<path d="M1928 616L824 616" stroke="#131313"/>
<path d="M1928 648L824 648" stroke="#131313"/>
<path d="M1928 680L824 680" stroke="#131313"/>
<path d="M1928 712L824 712" stroke="#131313"/>
<path d="M1928 744L824 744" stroke="#131313"/>
<path d="M1928 776L824 776" stroke="#131313"/>
<path d="M1928 808L824 808" stroke="#131313"/>
<path d="M1928 840L824 840" stroke="#131313"/>
<path d="M1928 872L824 872" stroke="#131313"/>
<path d="M1928 904L824 904" stroke="#131313"/>
<path d="M1928 936L824 936" stroke="#131313"/>
<path d="M1928 968L824 968" stroke="#131313"/>
<path d="M1928 1000L824 1000" stroke="#131313"/>
</svg>
