<svg width="60" height="60" viewBox="0 0 60 60" fill="none" xmlns="http://www.w3.org/2000/svg">
<path id="Vector" d="M30 0C24.0666 0 18.2664 1.75947 13.3329 5.05591C8.39943 8.35235 4.55426 13.0377 2.28363 18.5195C0.0129985 24.0013 -0.581101 30.0333 0.576455 35.8527C1.73401 41.6721 4.59123 47.0176 8.78681 51.2132C12.9824 55.4088 18.3279 58.266 24.1473 59.4235C29.9667 60.5811 35.9987 59.987 41.4805 57.7164C46.9623 55.4457 51.6476 51.6006 54.9441 46.6671C58.2405 41.7336 60 35.9334 60 30C59.9916 22.0461 56.8282 14.4203 51.2039 8.79607C45.5797 3.1718 37.9539 0.00839948 30 0ZM43.1712 24.7096L27.0173 40.8635C26.803 41.078 26.5485 41.2482 26.2683 41.3644C25.9882 41.4805 25.6879 41.5403 25.3846 41.5403C25.0814 41.5403 24.7811 41.4805 24.5009 41.3644C24.2208 41.2482 23.9663 41.078 23.7519 40.8635L16.8289 33.9404C16.3958 33.5074 16.1526 32.9201 16.1526 32.3077C16.1526 31.6953 16.3958 31.108 16.8289 30.675C17.2619 30.242 17.8492 29.9987 18.4615 29.9987C19.0739 29.9987 19.6612 30.242 20.0942 30.675L25.3846 35.9683L39.9058 21.4442C40.1202 21.2298 40.3747 21.0597 40.6549 20.9437C40.935 20.8277 41.2352 20.7679 41.5385 20.7679C41.8417 20.7679 42.1419 20.8277 42.4221 20.9437C42.7022 21.0597 42.9567 21.2298 43.1712 21.4442C43.3856 21.6586 43.5556 21.9132 43.6717 22.1933C43.7877 22.4734 43.8474 22.7737 43.8474 23.0769C43.8474 23.3801 43.7877 23.6804 43.6717 23.9605C43.5556 24.2407 43.3856 24.4952 43.1712 24.7096Z" fill="#FCA104"/>
</svg>
